# xmcd
#
# Track frame offsets:
#	187
#	24812
#	48317
#	78190
#	92870
#	116172
#	144847
#	169295
#	187182
#	212010
#	240387
#	265182
#
# Disc length: 3842 seconds
#
# Revision: 1
# Processed by: cddbd v1.5.1PL0 Copyright (c) Steve Scherf et al.
# Submitted via: CDex 1.50Beta5
#
DISCID=9b0f000c
DTITLE=高中正義 - 高中正義best selection Strings&Voices Disc 1
DYEAR=1993
DGENRE=
TTITLE0=I Remember You
TTITLE1=ONCE UPON A SONG
TTITLE2=Disco“B”
TTITLE3=PROLOGUE
TTITLE4=RADIO RIO
TTITLE5=SHE’S RAIN
TTITLE6=I Remember Clifford
TTITLE7=April Wave
TTITLE8=Le Premier Mars
TTITLE9=MALIBU
TTITLE10=GOOD(BAD?)OLD DAYS
TTITLE11=BLUE LAGOON
EXTD=
EXTT0=
EXTT1=
EXTT2=
EXTT3=
EXTT4=
EXTT5=
EXTT6=
EXTT7=
EXTT8=
EXTT9=
EXTT10=
EXTT11=
PLAYORDER=
